<svg id="Layer_1" data-name="Layer 1" xmlns="http://www.w3.org/2000/svg" width="180" height="180" viewBox="0 0 180 180"><defs><style>.cls-1{fill:#ffde00}.cls-2{fill:#211b00}.cls-3{fill:#fff}</style></defs><title>voice</title><rect class="cls-1" width="180" height="180" rx="23" ry="23"/><rect class="cls-2" x="9.15" y="9.15" width="161.69" height="161.69" rx="16" ry="16"/><path class="cls-1" d="M127.13 109.21c0 1-.13 3.13-.13 3.61 0 8-2.65 12.36-10 13.46v9.47c7.37-.18 10.29-1.49 13.51-3.65a16 16 0 0 0 6.83-9 54.65 54.65 0 0 0 1.66-14.75l-.72-19.77H117v20.67h10.14zm-24.81 0c0 1-.34 3-.33 3.45 0 8.14-2.18 12.62-9.55 13.71v9.48c7.37-.18 10.12-1.4 13.5-3.74a16.08 16.08 0 0 0 6.73-9c1-3.64.76-8.11.76-14.73V88.54l-20.5.08v20.58h9.39zM51.69 67.9c-.06-1-.29-2.88-.29-3.37 0-8 1.76-12.67 9.12-13.76v-9.46A22.43 22.43 0 0 0 48.28 45 15.63 15.63 0 0 0 42 54c-1 3.65-1.17 8.78-1.17 15.4v19.13h20.44l-.11-20.64h-9.47zm35 .6v21.22H66.11v-19.6c0-6.62 0-12.2 1.05-15.85a15.48 15.48 0 0 1 6.2-9.12c3.38-2.34 7-3.7 13.13-3.89v9.43c-7.28 1.09-9.32 5.92-9.32 13.88v3.6z"/><path class="cls-3" d="M82.53 110.5a23.43 23.43 0 0 1-14.13-12c-.12-.25-.24-.5-.35-.76l-3.4.56c.11.25.2.51.31.76a26.7 26.7 0 0 0 17 14.75l.78.2.62-3.3c-.36-.07-.58-.13-.83-.21zm-2 10.88a34.7 34.7 0 0 1-23.64-21c-.09-.25-.17-.51-.26-.76l-3.36.55c.09.26.16.52.24.77A38 38 0 0 0 79.9 124.7c.26.07.52.12.79.18l.62-3.31zm-2 10.73a45.78 45.78 0 0 1-32.9-29.89c-.09-.26-.15-.52-.22-.77L42 102l.23.77c5 16.09 18.6 28.6 35.65 32.66l.78.18.62-3.33zm36.14-53.54A26.73 26.73 0 0 0 97.61 64l-.78-.2-.61 3.31.78.23a23.48 23.48 0 0 1 14.19 11.8l.36.75 3.4-.57c-.1-.25-.2-.51-.32-.76zm11.49-1.92a38 38 0 0 0-26.53-23.5l-.78-.15-.61 3.31.76.16a34.71 34.71 0 0 1 23.74 20.73c.1.25.17.51.27.76l3.36-.56c-.09-.26-.16-.51-.25-.76zm11.25-1.89a49.08 49.08 0 0 0-35.75-32.33l-.78-.18-.62 3.33.74.16a45.82 45.82 0 0 1 33 29.57c.09.25.15.51.23.77l3.36-.56c-.06-.26-.14-.52-.22-.78z"/></svg>